<?xml version="1.0" standalone="no"?>
<!DOCTYPE svg PUBLIC "-//W3C//DTD SVG 20010904//EN"
 "http://www.w3.org/TR/2001/REC-SVG-20010904/DTD/svg10.dtd">
<svg version="1.0" xmlns="http://www.w3.org/2000/svg"
 width="2000.000000pt" height="992.000000pt" viewBox="0 0 2000.000000 992.000000"
 preserveAspectRatio="xMidYMid meet">
<metadata>
Created by potrace 1.16, written by Peter Selinger 2001-2019
</metadata>
<g transform="translate(0.000000,992.000000) scale(0.100000,-0.100000)"
fill="#000000" stroke="none">
<path d="M9735 8644 c-173 -41 -254 -82 -335 -171 -62 -67 -93 -130 -115 -228
-13 -58 -15 -135 -13 -455 l3 -385 64 -115 c208 -374 384 -859 480 -1323 159
-768 131 -1603 -80 -2348 -88 -314 -172 -533 -326 -850 l-85 -177 37 -56 c67
-101 171 -171 304 -205 99 -25 169 -26 266 -6 233 49 369 226 405 525 14 116
14 5336 0 5411 -31 166 -158 303 -335 360 -58 19 -227 34 -270 23z"/>
<path d="M16644 8615 c-100 -22 -172 -63 -250 -140 -84 -83 -120 -152 -140
-268 -13 -72 -13 -115 0 -357 8 -151 18 -331 21 -400 6 -126 -4 -879 -30
-2325 -13 -713 -26 -1065 -40 -1150 -5 -31 -26 -383 -46 -755 -6 -118 -8 -251
-4 -295 26 -308 125 -475 330 -556 54 -21 76 -23 215 -23 145 -1 159 1 222 26
154 62 262 179 306 333 18 61 22 120 31 475 6 223 16 469 22 547 l12 143 201
135 c111 74 221 150 246 169 l45 35 330 -416 c511 -645 677 -873 835 -1152 36
-63 84 -136 108 -162 199 -221 551 -222 784 -1 186 177 207 365 72 634 -137
274 -318 530 -873 1238 -149 190 -303 387 -343 439 l-72 94 30 25 c228 194
855 807 1031 1008 123 141 163 232 163 371 0 146 -52 257 -174 371 -112 104
-230 152 -377 152 -105 0 -218 -32 -291 -83 -27 -18 -215 -195 -420 -392 -599
-578 -892 -845 -1188 -1083 l-65 -52 -3 267 c-3 257 5 595 29 1253 12 315 6
851 -10 975 -6 39 -13 165 -16 280 -10 300 -36 387 -156 505 -104 103 -231
151 -394 149 -44 -1 -107 -7 -141 -14z"/>
<path d="M5367 8504 c-188 -45 -332 -214 -409 -479 l-23 -80 -5 -2385 c-5
-1801 -9 -2425 -19 -2547 -14 -177 -8 -247 28 -343 43 -113 154 -218 289 -271
48 -20 76 -23 177 -23 140 0 196 17 292 88 l58 43 100 -34 c433 -146 920 -187
1333 -113 582 105 1088 463 1412 1000 139 230 231 497 272 790 19 141 16 524
-6 675 -37 257 -98 460 -206 680 -273 561 -739 939 -1302 1055 -236 48 -572
53 -773 10 -180 -38 -470 -146 -633 -235 -34 -19 -67 -35 -72 -35 -6 0 -10
268 -10 733 0 620 2 756 17 890 26 239 0 381 -86 479 -87 99 -270 142 -434
102z m1789 -2912 c269 -71 482 -258 609 -537 86 -189 120 -381 112 -635 -8
-236 -35 -350 -128 -530 -107 -210 -276 -373 -492 -475 -320 -152 -705 -137
-1197 47 -74 28 -147 57 -162 64 l-28 15 0 808 0 809 63 44 c305 216 641 374
872 411 70 12 271 -1 351 -21z"/>
<path d="M11175 7781 c-92 -24 -150 -51 -221 -105 -141 -105 -211 -223 -236
-396 -9 -61 -8 -89 5 -154 26 -125 65 -197 160 -290 134 -133 262 -186 452
-186 122 0 181 13 284 62 103 49 219 159 269 255 73 139 81 331 20 470 -118
270 -437 419 -733 344z"/>
<path d="M3130 7566 c-160 -45 -288 -153 -357 -302 -35 -76 -43 -207 -20 -316
9 -40 19 -111 23 -158 12 -158 57 -254 164 -354 105 -97 214 -136 380 -136
166 0 275 39 380 136 71 66 111 128 140 214 20 60 22 79 17 240 -4 134 -10
194 -26 255 -30 116 -90 230 -152 293 -105 105 -208 142 -388 141 -64 0 -136
-6 -161 -13z"/>
<path d="M12738 6780 c-171 -27 -335 -158 -400 -318 -22 -54 -23 -69 -22 -277
0 -121 4 -348 8 -505 9 -297 -6 -689 -39 -1055 -8 -88 -19 -236 -25 -330 -5
-93 -14 -228 -20 -300 -15 -205 -12 -652 5 -790 8 -66 18 -190 21 -275 3 -85
12 -183 20 -218 20 -89 66 -173 132 -240 65 -66 128 -104 222 -135 86 -28 247
-29 335 -3 160 48 289 167 346 316 14 38 24 116 39 308 11 141 25 294 31 340
5 45 14 185 19 310 6 125 14 256 20 292 5 36 14 122 20 191 9 107 18 148 59
275 70 213 112 318 198 493 79 159 202 354 299 473 175 213 378 338 549 338
68 0 79 -3 101 -25 58 -59 79 -190 64 -415 -17 -267 -35 -773 -33 -930 3 -193
19 -451 38 -595 45 -339 57 -430 71 -525 8 -58 21 -157 29 -220 39 -326 73
-421 188 -527 88 -81 197 -117 362 -117 87 -1 125 4 181 21 186 59 307 180
355 357 19 72 21 96 15 216 -9 201 -38 434 -91 740 -25 145 -53 361 -60 460
-4 52 -8 322 -9 600 -3 559 -14 717 -66 987 -65 335 -166 550 -339 724 -167
167 -379 257 -658 280 -339 29 -638 -50 -943 -248 -103 -67 -203 -146 -290
-230 l-66 -62 -13 102 c-43 339 -204 508 -497 521 -54 3 -125 1 -156 -4z"/>
<path d="M11215 6446 c-123 -31 -249 -123 -313 -228 -59 -100 -68 -153 -76
-458 -4 -151 -11 -324 -16 -385 -5 -60 -16 -222 -25 -360 -8 -137 -20 -320
-25 -405 -14 -215 -12 -580 5 -1080 8 -234 15 -504 15 -600 0 -196 10 -256 62
-352 35 -66 136 -166 201 -200 323 -165 731 -3 806 322 14 60 14 291 -1 993
-13 620 -5 1032 27 1391 32 361 45 889 24 988 -37 174 -201 337 -379 377 -61
14 -243 12 -305 -3z"/>
<path d="M3225 4316 c-200 -63 -427 -288 -676 -668 -208 -318 -285 -549 -245
-736 36 -173 151 -301 316 -353 74 -23 241 -28 324 -9 175 40 293 173 331 375
25 131 46 164 243 389 198 226 285 359 317 483 30 118 -16 269 -112 367 -65
66 -153 122 -231 146 -74 23 -204 26 -267 6z"/>
</g>
</svg>
