<?xml version="1.0" standalone="no"?>
<!DOCTYPE svg PUBLIC "-//W3C//DTD SVG 20010904//EN"
 "http://www.w3.org/TR/2001/REC-SVG-20010904/DTD/svg10.dtd">
<svg version="1.0" xmlns="http://www.w3.org/2000/svg"
 width="128.000000pt" height="128.000000pt" viewBox="0 0 128.000000 128.000000"
 preserveAspectRatio="xMidYMid meet">

<g transform="translate(0.000000,128.000000) scale(0.100000,-0.100000)"
fill="#000000" stroke="none">
<path d="M287 1004 c-31 -10 -64 -31 -92 -59 -117 -117 -88 -293 79 -472 78
-84 167 -151 250 -189 l56 -26 63 30 c34 16 83 45 109 65 l47 36 49 -25 c58
-30 77 -25 156 37 103 82 167 195 150 266 -11 44 -41 81 -78 94 -30 11 -35 18
-46 66 -34 153 -200 232 -337 162 -27 -14 -61 -43 -78 -66 -16 -23 -32 -42
-35 -42 -3 0 -18 19 -35 42 -55 76 -165 110 -258 81z m161 -43 c62 -32 112
-102 112 -156 0 -18 5 -25 20 -25 15 0 20 7 20 25 0 31 24 81 54 113 71 79
202 83 284 8 55 -49 84 -156 43 -156 -10 0 -33 -13 -50 -29 l-31 -29 -30 28
c-54 51 -131 49 -185 -6 -40 -40 -50 -85 -31 -148 14 -45 85 -149 109 -160 17
-7 -45 -59 -115 -96 -71 -38 -84 -36 -182 27 -97 63 -223 192 -265 272 -75
142 -46 271 74 334 42 23 127 21 173 -2z m403 -250 l29 -29 0 -146 c0 -89 -4
-146 -10 -146 -20 0 -150 133 -169 174 -12 23 -21 59 -21 80 0 87 108 129 171
67z m240 0 c59 -59 30 -150 -82 -255 -38 -36 -74 -66 -79 -66 -6 0 -10 57 -10
146 l0 146 29 29 c41 41 101 41 142 0z"/>
<path d="M757 693 c-24 -6 -39 -47 -28 -77 17 -43 92 -40 104 4 6 25 -8 70
-22 70 -5 0 -15 2 -23 4 -7 2 -21 2 -31 -1z m43 -53 c0 -13 -7 -20 -20 -20
-13 0 -20 7 -20 20 0 13 7 20 20 20 13 0 20 -7 20 -20z"/>
<path d="M997 693 c-24 -6 -39 -47 -28 -77 17 -43 92 -40 104 4 6 25 -8 70
-22 70 -5 0 -15 2 -23 4 -7 2 -21 2 -31 -1z m43 -53 c0 -13 -7 -20 -20 -20
-13 0 -20 7 -20 20 0 13 7 20 20 20 13 0 20 -7 20 -20z"/>
</g>
</svg>
